<svg xmlns="http://www.w3.org/2000/svg" height="800" width="1200" id="svg8" version="1.1" viewBox="-46.03755 -26.51525 398.9921 159.0915"><defs id="defs2"><style id="style18">.cls-1{fill:#ee3135}.cls-2{fill:#ae132a}</style></defs><g transform="translate(-8.58 -95.205)" id="layer1"><g transform="translate(.265 -.265)" id="g126"><path id="path24" d="M26.572 124.994v12.883h2.4q5.96 0 8.035-1.503 2.074-1.503 2.074-4.373 0-3.247-2.434-5.125-2.434-1.879-8.086-1.879zm0-19.134v10.583h2.093q3.497 0 5.196-1.468 1.699-1.469 1.707-3.993 0-2.357-1.614-3.741t-4.906-1.384zM17.01 147V96.734h7.903q6.879 0 10.054.89 4.516 1.195 7.186 4.442a11.684 11.684 0 012.675 7.654 11.16 11.16 0 01-1.212 5.212q-1.214 2.342-3.947 4.392 4.58 2.154 6.696 5.382 2.117 3.228 2.117 7.639a14.227 14.227 0 01-2.188 7.723 13.978 13.978 0 01-5.644 5.212q-3.455 1.725-9.543 1.725z" class="cls-1" fill="#ee3135" stroke-width=".265"/><path id="path26" d="M70.593 117.475q-4.326 0-7.186 3.059-2.86 3.058-2.863 7.842 0 4.818 2.91 7.937a9.435 9.435 0 007.17 3.11q4.393 0 7.287-3.06 2.895-3.058 2.9-8.022 0-4.852-2.894-7.858-2.895-3.005-7.324-3.008m9.806-7.654h9.329V147h-9.33v-3.93q-2.73 2.599-5.479 3.742a15.346 15.346 0 01-5.956 1.146q-7.202 0-12.459-5.586-5.257-5.585-5.255-13.89 0-8.613 5.086-14.113 5.085-5.5 12.356-5.5a15.714 15.714 0 016.278 1.264 17.145 17.145 0 015.427 3.794z" class="cls-1" fill="#ee3135" stroke-width=".265"/><path id="polygon28" class="cls-1" transform="translate(8.315 95.47) scale(.26458)" fill="#ee3135" d="M410.46 54.24l-51.92 57.93V0h-35.26v194.76h35.26V130l59.66 64.76h43.77l-67.77-73.17 60.53-67.35z"/><path id="path30" d="M154.336 123.764a9.358 9.358 0 00-3.646-5.056 10.583 10.583 0 00-6.315-1.947 11.168 11.168 0 00-6.845 2.185q-1.852 1.368-3.424 4.818zm9.33 7.348h-29.97q.648 3.968 3.469 6.305 2.82 2.336 7.194 2.341a12.435 12.435 0 008.996-3.656l7.858 3.69q-2.94 4.17-7.038 6.168-4.098 1.998-9.74 2-8.746 0-14.25-5.519-5.503-5.52-5.5-13.822 0-8.509 5.484-14.129 5.485-5.62 13.759-5.622 8.781 0 14.287 5.622 5.506 5.623 5.485 14.846z" class="cls-1" fill="#ee3135" stroke-width=".265"/><path id="path32" d="M167.195 109.82h7.996v4.684q1.299-2.768 3.44-4.202a8.326 8.326 0 014.714-1.437 8.731 8.731 0 013.794.958l-2.91 8.03q-1.64-.82-2.699-.82-2.153 0-3.638 2.664-1.484 2.665-1.487 10.457l.035 1.812v15.036h-9.26z" class="cls-1" fill="#ee3135" stroke-width=".265"/><path id="polygon34" class="cls-2" transform="translate(8.315 95.47) scale(.26458)" fill="#ae132a" d="M0 397.23h35.26l20.86-119.98 40 119.98h31.87l40.36-119.98 20.37 119.98h34.97l-31.87-189.98h-35.21l-44.44 132.51-44.04-132.51H32.89z"/><path id="path36" d="M105.767 170.91l-7.758 4.27q-2.19-2.288-4.328-3.174a13.002 13.002 0 00-5.012-.89q-5.233 0-8.466 3.123-3.233 3.122-3.233 8 0 4.745 3.114 7.745t8.175 3.003q6.26 0 9.75-4.27l7.356 5.027q-5.98 7.779-16.88 7.779-9.809 0-15.36-5.821-5.55-5.821-5.556-13.6a19.145 19.145 0 0110.234-17.084q4.837-2.596 10.816-2.598 5.535 0 9.943 2.204a18.878 18.878 0 017.21 6.27" class="cls-2" fill="#ae132a" stroke-width=".265"/><path id="polygon38" class="cls-2" transform="translate(8.315 95.47) scale(.26458)" fill="#ae132a" d="M417.65 312.82v84.41H381.1V207.25h36.55v65.49l51.58-65.49h43.41l-66.33 84.79 72.79 105.19h-42.88z"/><path id="path40" d="M170.891 177.334a9.361 9.361 0 00-3.646-5.056 10.583 10.583 0 00-6.315-1.947 11.168 11.168 0 00-6.845 2.185q-1.852 1.368-3.424 4.818zm9.33 7.348h-29.97q.648 3.969 3.469 6.305 2.82 2.336 7.194 2.341a12.435 12.435 0 008.996-3.656l7.85 3.693q-2.94 4.17-7.038 6.168-4.098 1.997-9.742 1.992-8.747 0-14.25-5.52-5.504-5.518-5.501-13.82 0-8.51 5.485-14.13 5.485-5.62 13.758-5.622 8.782 0 14.288 5.622 5.506 5.623 5.5 14.849z" class="cls-2" fill="#ae132a" stroke-width=".265"/><path id="path42" d="M183.47 163.39h9.329v3.81q3.175-2.674 5.75-3.72a13.89 13.89 0 015.272-1.058 12.76 12.76 0 019.383 3.86q3.24 3.281 3.24 9.706v24.569h-9.23v-16.27q0-6.654-.599-8.84-.598-2.185-2.08-3.328a5.82 5.82 0 00-3.664-1.143 6.88 6.88 0 00-4.857 1.895q-2.03 1.894-2.813 5.239-.41 1.74-.407 7.543v14.914h-9.324z" class="cls-2" fill="#ae132a" stroke-width=".265"/><path id="polygon44" class="cls-2" transform="translate(8.315 95.47) scale(.26458)" fill="#ae132a" d="M859.9 286.55h-53.73v-29.84h107.58l-63.13 110.68h59.51v29.84H796.48z"/><path id="path46" d="M294.83 177.334a9.358 9.358 0 00-3.646-5.056 10.567 10.567 0 00-6.315-1.947 11.168 11.168 0 00-6.845 2.185q-1.852 1.368-3.424 4.818zm9.33 7.348h-29.967q.648 3.969 3.468 6.305t7.194 2.341a12.435 12.435 0 008.996-3.656l7.858 3.69q-2.94 4.17-7.038 6.168-4.098 1.998-9.739 2-8.747 0-14.25-5.519-5.504-5.519-5.501-13.822 0-8.509 5.485-14.128 5.485-5.62 13.758-5.623 8.782 0 14.288 5.623 5.506 5.622 5.5 14.848z" class="cls-2" fill="#ae132a" stroke-width=".265"/><path id="rect48" class="cls-2" fill="#ae132a" stroke-width=".265" d="M252.732 163.391h9.329v37.179h-9.329z"/><path id="rect50" class="cls-2" fill="#ae132a" stroke-width=".265" d="M252.73 153.249h9.319v7.048h-9.319z"/><path id="rect52" class="cls-2" fill="#ae132a" stroke-width=".265" d="M306.443 193.484h8.789v7.048h-8.789z"/></g></g></svg>